<?xml version="1.0" encoding="UTF-8"?>
<svg id="_图层_2" data-name="图层 2" xmlns="http://www.w3.org/2000/svg" viewBox="0 0 567 567">
  <defs>
    <style>
      .cls-1 {
        fill: #111;
      }

      .cls-2 {
        fill: none;
      }
    </style>
  </defs>
  <g id="_图层_2-2" data-name=" 图层 2">
    <g>
      <rect class="cls-2" width="567" height="567"/>
      <path class="cls-1" d="m4.56,555.22c-3.94,4.74,2.9,10.82,7.24,7.22,59.09-50.3,117-101.94,173.69-155.13,62.29,45.14,149.37,39.97,205.89-15.86,56.47-56.44,62.02-144.02,16.59-206.64,52.78-56.31,104.39-113.97,154.43-172.87,3.94-4.74-2.59-11.21-7.24-7.22l-145,119.51c-12.36,10.12-28.58,14.1-44.59,10.5l-49.26-11.53c-53.56-13-110.79,2.93-150.37,42.4-39.39,39.42-55.66,96.3-42.56,150.55l11.6,49.26c3.93,15.61,0,31.92-10.48,44.54L4.56,555.22h0Zm183.94-186.19c-.03-.1-.12-.07-.15-.17-49.81-50.02-50.1-130.62.52-181.31,50-49.91,131.08-49.91,181.08.06l-.34.29c-50.3,69.92-111.92,130.79-181.12,181.12h0Zm20.24,16.35c60.7-57.63,120.03-116.98,177.66-177.74,33.05,49.91,27,117.58-16.74,161.33-43.88,43.99-111.27,49.02-160.92,16.41h0Z"/>
    </g>
  </g>
</svg>