<?xml version="1.0" encoding="utf-8"?>
<!-- Generator: Adobe Illustrator 26.1.0, SVG Export Plug-In . SVG Version: 6.00 Build 0)  -->
<svg version="1.1" id="_图层_2" xmlns="http://www.w3.org/2000/svg" xmlns:xlink="http://www.w3.org/1999/xlink" x="0px" y="0px"
	 viewBox="0 0 682 682" style="enable-background:new 0 0 682 682;" xml:space="preserve">
<style type="text/css">
	.st0{fill:#2D2D2D;}
	.st1{display:none;fill:#2D2D2D;}
	.st2{fill:#FFFFFF;}
</style>
<g id="_图层_2-2">
	<g>
		<rect y="0" class="st0" width="682" height="682"/>
		<path class="st1" d="M341,0L341,0c188.3,0,341,152.7,341,341l0,0c0,188.3-152.7,341-341,341l0,0C152.7,682,0,529.3,0,341l0,0
			C0,152.7,152.7,0,341,0z"/>
		<path class="st2" d="M65.4,498.5c-4.1,2.9,0.1,9.1,4.2,7.2c56.9-27.6,113.1-56.6,168.7-87c39.9,48.3,109.7,62,165.7,29.5
			c56.1-33,78.3-101,55.3-159.7c53.1-33.7,105.6-68.6,157.1-104.9c4.1-2.9,0.2-9.4-4.2-7.2l-138.8,64.7c-11.8,5.5-25.4,5.3-37.3-0.8
			l-36.5-19.2c-39.6-21.2-88-20.3-127.3,2.8C233.2,247,208.7,288.5,208,334l-0.9,41.2c-0.1,13.1-6.5,25.2-17.4,33L65.4,498.5
			L65.4,498.5z M248.6,389.1c0-0.1-0.1-0.1-0.1-0.2c-29.1-49.6-12.9-113.3,37.4-142.9c49.6-29.2,113.6-12.6,142.9,37l-0.3,0.2
			C374.5,328,313.5,363.5,248.6,389.1L248.6,389.1L248.6,389.1z M261.2,406.1c59.7-33.1,118.6-67.8,176.4-104
			c15.9,46.1-2.7,98.3-46.1,123.9C347.9,451.8,293.7,442,261.2,406.1L261.2,406.1L261.2,406.1z"/>
	</g>
</g>
</svg>
