<?xml version="1.0" encoding="UTF-8"?>
<svg id="_图层_2" data-name="图层 2" xmlns="http://www.w3.org/2000/svg" viewBox="0 0 2000 770">
  <defs>
    <style>
      .cls-1 {
        fill: #fff;
      }

      .cls-2 {
        fill: none;
      }
    </style>
  </defs>
  <g id="_图层_2-2" data-name=" 图层 2">
    <g>
      <rect class="cls-2" width="2000" height="770"/>
      <path class="cls-1" d="m120.4,583.3c-5,3.6.1,11.2,5.2,8.8,69.8-33.9,138.8-69.4,207-106.7,49,59.3,134.6,76.1,203.3,36.2,68.8-40.5,96.1-123.9,67.8-195.9,65.2-41.3,129.6-84.2,192.8-128.7,5-3.6.3-11.5-5.2-8.8l-170.3,79.4c-14.5,6.7-31.2,6.5-45.8-1l-44.8-23.5c-48.6-26-108-24.9-156.2,3.4-48,28.3-78,79.3-78.9,135.1l-1.1,50.6c-.1,16.1-8,30.9-21.3,40.5l-152.5,110.6h0Zm224.7-134.2c0-.1-.1-.1-.1-.2-35.7-60.9-15.8-139,45.9-175.4,60.9-35.8,139.4-15.5,175.3,45.4l-.4.2c-66.2,55.1-141.1,98.6-220.7,130h0Zm15.5,20.9c73.2-40.6,145.5-83.2,216.5-127.6,19.5,56.6-3.3,120.6-56.6,152-53.5,31.6-120,19.6-159.9-24.4h0Z"/>
      <path class="cls-1" d="m809.1,391.4v40.8c0,7.9.5,12.8,1.5,14.9s2.7,3.7,5.1,4.9,7,1.8,13.6,1.8v4h-74.5v-4c6.7,0,11.3-.6,13.7-1.9s4.1-2.9,5-4.9c1-2,1.5-7,1.5-14.8v-94.5c0-7.9-.5-12.8-1.5-14.9s-2.7-3.7-5.1-4.9c-2.4-1.2-7-1.8-13.6-1.8v-4h67.7c17.6,0,30.5,1.2,38.7,3.6,8.2,2.4,14.8,6.9,20,13.5s7.7,14.2,7.7,23c0,10.7-3.9,19.6-11.6,26.6-4.9,4.4-11.8,7.8-20.7,10l35,49.3c4.6,6.4,7.8,10.4,9.8,11.9,2.9,2.2,6.3,3.4,10.2,3.6v4h-45.9l-46.9-66.4-9.7.2h0Zm0-71.5v63.8h6.1c10,0,17.4-.9,22.3-2.7s8.8-5.1,11.7-9.9c2.8-4.8,4.2-11,4.2-18.6,0-11.1-2.6-19.3-7.8-24.6s-13.5-7.9-25.1-7.9l-11.4-.1h0Zm151-7.8v58.1c5.5-5.8,10.6-9.9,15.2-12.3,4.6-2.4,9.3-3.6,14.3-3.6,6.3,0,11.7,1.8,16.2,5.4,4.5,3.6,7.5,7.8,8.9,12.6s2.2,13,2.2,24.4v39.2c0,7.7.7,12.4,2.2,14.3,1.4,1.9,4.3,3.1,8.7,3.6v3.9h-50.9v-3.9c3.6-.5,6.3-1.9,8.1-4.3,1.3-1.9,1.9-6.4,1.9-13.6v-44.8c0-8.3-.3-13.5-1-15.6-.6-2.1-1.7-3.8-3.3-4.9-1.5-1.2-3.3-1.8-5.2-1.8-2.9,0-5.7,1-8.4,2.9-2.7,2-5.7,5.4-8.8,10.4v53.8c0,7.2.5,11.6,1.6,13.4,1.4,2.4,4.2,3.9,8.4,4.5v3.9h-50.9v-3.9c4.2-.4,7.2-1.8,9-4.1,1.2-1.6,1.8-6.2,1.8-13.9v-101.9c0-7.6-.7-12.3-2.1-14.2-1.4-1.9-4.3-3.1-8.8-3.6v-4h40.9Zm159.8,91.9h-55.1c.6,13.3,4.2,23.9,10.6,31.6,4.9,5.9,10.9,8.9,17.8,8.9,4.3,0,8.2-1.2,11.7-3.6,3.5-2.4,7.3-6.7,11.3-12.9l3.7,2.4c-5.4,11.1-11.5,19-18,23.6-6.6,4.6-14.2,6.9-22.9,6.9-14.9,0-26.2-5.7-33.8-17.2-6.2-9.2-9.2-20.7-9.2-34.4,0-16.8,4.5-30.1,13.6-40s19.7-14.9,31.8-14.9c10.2,0,19,4.2,26.5,12.5s11.4,20.7,12,37.1h0Zm-26.4-7.2c0-11.5-.6-19.4-1.9-23.7s-3.2-7.6-5.8-9.8c-1.5-1.3-3.5-1.9-6-1.9-3.7,0-6.8,1.8-9.1,5.5-4.2,6.4-6.3,15.1-6.3,26.2v3.8h29.1v-.1Zm91,46.1c-12.2,10.8-23.2,16.2-33,16.2-5.7,0-10.5-1.9-14.3-5.6s-5.7-8.5-5.7-14.1c0-7.7,3.3-14.6,9.9-20.7,6.6-6.1,20.9-14.3,43.1-24.4v-10.1c0-7.6-.4-12.4-1.2-14.3-.8-2-2.4-3.7-4.7-5.2s-4.9-2.2-7.7-2.2c-4.7,0-8.5,1-11.5,3.1-1.9,1.3-2.8,2.8-2.8,4.5,0,1.5,1,3.4,3,5.6,2.7,3.1,4.1,6.1,4.1,8.9,0,3.5-1.3,6.5-3.9,9s-6,3.7-10.3,3.7-8.3-1.4-11.3-4.1c-3-2.7-4.6-5.9-4.6-9.6,0-5.2,2-10.1,6.1-14.8,4.1-4.7,9.8-8.3,17.1-10.8s14.9-3.8,22.8-3.8c9.5,0,17.1,2,22.6,6.1,5.6,4.1,9.2,8.4,10.8,13.2,1,3,1.5,9.9,1.5,20.7v39c0,4.6.2,7.5.5,8.6s.9,2.1,1.6,2.6c.7.6,1.5.9,2.5.9,1.9,0,3.8-1.3,5.7-4l3.2,2.6c-3.6,5.3-7.3,9.1-11.1,11.5s-8.2,3.6-13.1,3.6c-5.7,0-10.2-1.3-13.4-4s-5.2-6.6-5.9-12.1h0Zm0-7.8v-33.6c-8.7,5.1-15.1,10.5-19.3,16.3-2.8,3.9-4.2,7.8-4.2,11.7,0,3.3,1.2,6.2,3.5,8.7,1.8,1.9,4.3,2.9,7.5,2.9,3.6,0,7.7-2,12.5-6h0Zm115.1-80.6l1.6,34.3h-3.7c-4.4-10.2-8.9-17.1-13.6-20.8s-9.4-5.6-14-5.6c-2.9,0-5.4,1-7.5,2.9-2.1,2-3.1,4.2-3.1,6.8,0,1.9.7,3.8,2.2,5.6,2.3,2.9,8.7,8,19.2,15.1s17.5,13.2,20.8,18.1c3.3,5,5,10.6,5,16.7,0,5.6-1.4,11.1-4.2,16.4-2.8,5.4-6.7,9.5-11.8,12.4-5.1,2.9-10.7,4.3-16.9,4.3-4.8,0-11.2-1.5-19.2-4.5-2.2-.8-3.6-1.2-4.4-1.2-2.4,0-4.3,1.8-5.9,5.4h-3.5l-1.7-36.1h3.7c3.2,9.4,7.6,16.5,13.3,21.3,5.6,4.7,10.9,7.1,15.9,7.1,3.4,0,6.2-1.1,8.4-3.2,2.2-2.1,3.3-4.7,3.3-7.7,0-3.4-1.1-6.4-3.2-8.9s-6.9-6.3-14.4-11.4c-11-7.6-18.1-13.4-21.3-17.4-4.7-5.9-7.1-12.4-7.1-19.4,0-7.7,2.7-14.7,8-21s13.1-9.4,23.2-9.4c5.4,0,10.7,1.3,15.8,4,1.9,1.1,3.5,1.6,4.7,1.6,1.3,0,2.3-.3,3.1-.8s2-2.1,3.8-4.6h3.5Zm57.1-33.9v36.7h23.8v10.6h-23.8v62c0,5.8.3,9.5.8,11.2s1.5,3,2.8,4.1c1.4,1,2.6,1.6,3.8,1.6,4.7,0,9.1-3.5,13.2-10.6l3.2,2.4c-5.8,13.8-15.2,20.6-28.2,20.6-6.4,0-11.8-1.8-16.2-5.3s-7.2-7.5-8.4-11.9c-.7-2.4-1.1-9-1.1-19.8v-54.2h-13.1v-3.8c9-6.4,16.7-13.1,23-20.1s11.9-14.9,16.6-23.5h3.6Zm219.9,86l-5.5,51.1h-129.3v-4h4.8c4.2,0,7.6-.8,10.2-2.3,1.9-1,3.3-2.7,4.3-5.2.8-1.7,1.2-6.2,1.2-13.5v-95.8c0-7.4-.4-12.1-1.2-14s-2.4-3.5-4.8-4.9-5.6-2.1-9.7-2.1h-4.8v-4h77.7v4h-6.3c-4.2,0-7.6.8-10.2,2.3-1.9,1-3.3,2.7-4.4,5.2-.8,1.7-1.2,6.2-1.2,13.5v92.8c0,7.4.4,12.2,1.3,14.2.9,2,2.5,3.6,5.1,4.6,1.8.6,6.1,1,13,1h12.1c7.7,0,14.2-1.4,19.3-4.1,5.2-2.7,9.6-7,13.4-12.9s7.3-14.5,10.7-26l4.3.1h0Zm142.9,0l-5.5,51.1h-129.3v-4h4.8c4.2,0,7.6-.8,10.2-2.3,1.9-1,3.3-2.7,4.3-5.2.8-1.7,1.2-6.2,1.2-13.5v-95.8c0-7.4-.4-12.1-1.2-14s-2.4-3.5-4.8-4.9-5.6-2.1-9.7-2.1h-4.8v-4h77.7v4h-6.3c-4.2,0-7.6.8-10.2,2.3-1.9,1-3.3,2.7-4.4,5.2-.8,1.7-1.2,6.2-1.2,13.5v92.8c0,7.4.4,12.2,1.3,14.2.9,2,2.5,3.6,5.1,4.6,1.8.6,6.1,1,13,1h12.1c7.7,0,14.2-1.4,19.3-4.1,5.2-2.7,9.6-7,13.4-12.9s7.3-14.5,10.7-26l4.3.1h0Zm150.2-97.8v50.5h-4.2c-3.2-13.2-9-23.3-17.6-30.3s-18.3-10.5-29.2-10.5c-9.1,0-17.4,2.6-25,7.8s-13.1,12.1-16.7,20.5c-4.5,10.8-6.8,22.9-6.8,36.1s1.7,24.9,4.9,35.6c3.3,10.7,8.4,18.8,15.5,24.3,7,5.5,16.1,8.2,27.3,8.2,9.2,0,17.6-2,25.2-6s15.7-10.9,24.1-20.7v12.6c-8.2,8.5-16.7,14.7-25.5,18.5s-19.2,5.8-31,5.8c-15.5,0-29.3-3.1-41.4-9.4-12.1-6.2-21.4-15.2-27.9-26.9-6.6-11.7-9.8-24.1-9.8-37.3,0-13.9,3.6-27.1,10.9-39.5s17.1-22.1,29.4-29,25.5-10.3,39.4-10.3c10.2,0,21.1,2.2,32.4,6.7,6.6,2.6,10.8,3.9,12.6,3.9,2.3,0,4.3-.8,6-2.5s2.8-4.3,3.3-8l4.1-.1h0Z"/>
    </g>
  </g>
</svg>