<svg width="85" height="16" viewBox="0 0 85 16" fill="none" xmlns="http://www.w3.org/2000/svg">
<path d="M11.106 1.5296V4.0896L9.43878 5.9392C10.0709 6.52004 10.6423 7.16333 11.1444 7.8592V9.0688C10.5484 8.08397 9.81905 7.18591 8.9771 6.4L0.160305 16L7.36122 5.12C6.85318 4.77828 6.32181 4.47247 5.77099 4.2048L0.109008 16L3.31511 3.3024C2.23164 3.02842 1.11769 2.89293 0 2.8992V2.2592C1.16124 2.25783 2.31806 2.40189 3.44336 2.688L4.11023 0H7.7716L6.04672 3.616C6.6288 3.89345 7.19023 4.21213 7.72672 4.5696L10.7597 0H14.8892L13.4656 1.504L11.106 1.5296Z" fill="#ffffff"/>
<path d="M15.3893 6.6496H18.7237V9.3376H15.3893V13.3248H12.0293V1.9968H19.2815L19.5124 5.0304H15.3893V6.6496Z" fill="#ffffff"/>
<path fill-rule="evenodd" clip-rule="evenodd" d="M25.2898 13.3184C22.0921 13.3901 19.4365 10.8711 19.3456 7.68C19.3842 6.14991 20.0314 4.69806 21.1442 3.64498C22.257 2.5919 23.7441 2.0242 25.2769 2.0672C26.8109 2.02247 28.2996 2.5894 29.4138 3.64266C30.5281 4.69593 31.1761 6.14877 31.2147 7.68C31.1307 10.8746 28.4781 13.402 25.2769 13.3376L25.2898 13.3184ZM25.2898 4.192C24.7285 4.20233 24.2771 4.65579 24.2702 5.216V9.9328C24.2736 10.1982 24.3833 10.4511 24.5749 10.6351C24.7665 10.8192 25.024 10.9189 25.2898 10.912C25.8215 10.9095 26.2596 10.4947 26.2901 9.9648V5.2352C26.2702 4.67807 25.8223 4.231 25.2641 4.2112L25.2898 4.192Z" fill="#ffffff"/>
<path d="M13.5426 14.0224C13.5875 14.4576 13.6131 14.9504 13.6131 15.3984V15.5968H12.9206V15.5072C12.9236 15.4731 12.9236 15.4389 12.9206 15.4048C12.9155 14.934 12.8834 14.4639 12.8244 13.9968L13.5426 14.0224Z" fill="#ffffff"/>
<path d="M34.8376 10.432L36.5496 13.3184H40.2751L36.6843 7.392L39.8904 2.0032H36.1713L34.7798 4.384L33.3435 2.0032H29.6437L32.946 7.4304L29.4962 13.3184H33.1704L34.8376 10.432Z" fill="#ffffff"/>
<path d="M46.386 6.7328V13.3248H43.4556V1.9968H46.8092L50.1435 7.68V1.9968H53.2214V13.3248H50.3808L46.386 6.7328Z" fill="#ffffff"/>
<path d="M61.5573 1.9968H53.8626V13.3248H61.5573V10.6496H56.8122V8.6976H60.6595V6.3232H56.8122V4.5952H61.5573V1.9968Z" fill="#ffffff"/>
<path d="M70.1817 13.3248L68.8031 6.8288L67.4693 13.3248H64.7634L62.0446 2.0032H65.0263L66.4305 8.5312L67.7771 2.0032H70.2843L71.7014 8.4672L73.1505 2.0032H75.5615L72.8428 13.3248H70.1817Z" fill="#ffffff"/>
<path d="M78.8744 4.3362C79.0672 4.18464 79.3128 4.11656 79.5563 4.1472C80.2936 4.08517 80.9693 4.55992 81.1594 5.2736L83.7243 4.4544C83.0895 2.6368 81.7173 1.76 79.7551 1.76C77.0876 1.76 75.4589 3.232 75.4589 5.3504C75.4589 7.1872 76.5554 8.0896 78.8189 8.7296C79.0905 8.80946 79.3359 8.87164 79.5547 8.92706C80.4053 9.14253 80.8516 9.25558 80.8516 9.9072C80.8516 10.3424 80.4348 10.6752 79.7295 10.6752C78.8182 10.7961 77.9721 10.1824 77.8058 9.28L74.9908 9.8752C75.4718 12.0576 77.1069 13.3376 79.6718 13.3376C80.9305 13.3627 82.1431 12.8643 83.0189 11.9616C83.6554 11.2942 84.0072 10.4062 84 9.4848C84.0404 8.58827 83.6868 7.7188 83.0318 7.104C82.2466 6.51691 81.3319 6.12625 80.3643 5.9648C80.1886 5.91766 80.0248 5.87635 79.8734 5.83813C78.9966 5.61694 78.5304 5.49932 78.5304 4.9536C78.5576 4.71015 78.6815 4.48776 78.8744 4.3362Z" fill="#ffffff"/>
</svg>
