<?xml version="1.0" encoding="utf-8"?>
<!-- Generator: Adobe Illustrator 26.1.0, SVG Export Plug-In . SVG Version: 6.00 Build 0)  -->
<svg version="1.1" id="Layer_2" xmlns="http://www.w3.org/2000/svg" xmlns:xlink="http://www.w3.org/1999/xlink" x="0px" y="0px"
	 viewBox="0 0 202.3 79.4" style="enable-background:new 0 0 202.3 79.4;" xml:space="preserve">
<style type="text/css">
	.st0{fill:#D2D3D5;}
	.st1{fill:#E6E7E9;}
	.st2{fill:#FFFFFF;}
</style>
<path class="st0" d="M91.7,63.8L91.7,63.8C88.3,42.9,76.2,48,76.2,48L75.8,4.1c0,0,9.2-3.2,16,18.1l0,0L91.7,63.8L91.7,63.8z"/>
<path class="st1" d="M91.8,64L91.8,64c-1-25.8-8-24.2-8-24.2L83,0c0,0,7.9,4.1,9,20l0,0L91.8,64L91.8,64z"/>
<path class="st2" d="M91.7,63.8L91.7,63.8c6-25,38,5,38,5v-43c0,0-32-27-38-2l0,0V63.8z M21.9,31.9c0,3.1-0.9,5.4-2.8,6.9
	c-1.9,1.5-4.5,2.3-8,2.3H7v13.2H0V22.7h11c3.3,0,6,0.8,7.9,2.3C20.9,26.5,21.9,28.8,21.9,31.9L21.9,31.9z M14.9,32.8
	c0-1.6-0.4-2.7-1.3-3.5s-2-1.1-3.6-1.1H7v9.4h3.2c1.6,0,2.8-0.4,3.5-1.3S14.9,34.3,14.9,32.8z M45.8,54.4h-6.3v-2.5l-2.6,1.5
	c-0.7,0.4-1.5,0.7-2.3,1c-0.8,0.2-1.7,0.3-2.6,0.3c-2.2,0-3.9-0.7-5.1-2c-1.2-1.3-1.9-3.1-1.9-5.4v-15h6.3v13.6
	c0,0.8,0.3,1.5,0.9,2.1c0.6,0.6,1.5,0.9,2.7,0.9c1.1,0,2.1-0.2,2.8-0.7c0.8-0.5,1.4-0.9,1.8-1.3V32.2h6.3L45.8,54.4L45.8,54.4z
	 M72.8,42.8c0,3.4-1,6.2-3.1,8.4s-4.7,3.4-7.8,3.4c-1.1,0-2.3-0.2-3.4-0.5c-1.2-0.3-2-0.7-2.6-1.1l-3.5,1.6l-1.5-0.8V22.7h6.2v10.6
	l2.4-1.2c0.5-0.2,1-0.4,1.6-0.6c0.6-0.2,1.2-0.3,1.9-0.3c3.1,0,5.5,1.1,7.3,3.3C71.9,36.7,72.7,39.5,72.8,42.8L72.8,42.8z
	 M66.4,43.2c0-1.8-0.5-3.4-1.5-4.8c-1-1.3-2.3-2-3.8-2c-1,0-1.8,0.2-2.6,0.5c-0.8,0.3-1.3,0.7-1.5,1.2v10.5c0.3,0.4,0.9,0.7,1.6,0.9
	s1.5,0.4,2.4,0.4c2,0,3.3-0.5,4.2-1.6C66,47.2,66.4,45.6,66.4,43.2L66.4,43.2z M155.4,44.2H139c0.3,1.8,1.1,3.1,2.1,3.9
	c1.1,0.8,2.4,1.2,3.9,1.2c1.2,0,2.6-0.2,4.1-0.5c1.5-0.4,2.7-0.8,3.5-1.4v5.6c-0.8,0.6-2,1-3.6,1.4s-2.9,0.5-3.9,0.5
	c-3.9,0-7-1.1-9.1-3.2c-2.2-2.1-3.3-5-3.3-8.6s1.1-6.5,3.4-8.7c2.2-2.2,5-3.3,8.4-3.3s6,1.2,8,3.5C154.4,36.9,155.4,40.1,155.4,44.2
	L155.4,44.2z M149.6,41.2c-0.3-1.7-0.9-2.9-1.9-3.7s-2.1-1.3-3.5-1.3c-1.6,0-2.9,0.5-3.7,1.4c-0.8,0.9-1.3,2.1-1.5,3.6H149.6z
	 M179.5,54.4h-4.8l-1.3-2l-3.3,1.8c-0.3,0.2-0.7,0.3-1.2,0.3c-0.5,0.1-1,0.1-1.4,0.1c-3.2,0-5.7-1.1-7.4-3.3s-2.5-4.9-2.6-8.2
	c0-3.6,1-6.4,3-8.5s4.7-3.2,8.1-3.2c1,0,1.8,0.1,2.5,0.2s1.4,0.4,2.1,0.8v-9.7h6.2V54.4z M173.3,47.5v-9.8c-0.3-0.4-0.9-0.8-1.7-1.1
	c-0.8-0.3-1.6-0.5-2.6-0.5c-1.7,0-3,0.5-3.8,1.5s-1.3,2.6-1.3,4.8s0.4,3.9,1.3,5s2.1,1.7,3.6,1.7c1,0,1.9-0.2,2.6-0.5
	C172.2,48.4,172.8,48,173.3,47.5L173.3,47.5z M126.2,51.4H120l-3-15l-5.5,12.9h-2.8l-4.9-12.3l-3,14.5h-5.8l6-26.9h2.3l7.1,15.9
	l7.1-15.9h2.5L126.2,51.4L126.2,51.4z"/>
<path class="st1" d="M202.3,22.1c0,4.5-3.5,8-8.1,8s-8.1-3.5-8.1-8s3.6-7.9,8.1-7.9S202.3,17.8,202.3,22.1z M188.1,22.1
	c0,3.5,2.6,6.3,6.1,6.3s6-2.8,6-6.2s-2.5-6.3-6.1-6.3S188.1,18.7,188.1,22.1L188.1,22.1z M193,26.3h-1.8v-7.9c0.7-0.1,1.7-0.2,3-0.2
	c1.5,0,2.2,0.2,2.7,0.6c0.4,0.3,0.8,1,0.8,1.7c0,0.9-0.7,1.5-1.6,1.8v0.1c0.8,0.3,1.2,0.9,1.4,1.9c0.2,1.2,0.4,1.7,0.6,2h-2
	c-0.2-0.3-0.4-1-0.6-1.9c-0.1-0.9-0.6-1.2-1.6-1.2H193L193,26.3L193,26.3z M193,21.8h0.9c1,0,1.8-0.3,1.8-1.1c0-0.7-0.5-1.2-1.7-1.2
	c-0.5,0-0.8,0-1,0.1L193,21.8L193,21.8z"/>
</svg>
